<svg width="115" height="34" viewBox="0 0 115 34" fill="none" xmlns="http://www.w3.org/2000/svg">
<path d="M12.1387 6.27539C5.43552 6.27539 0 12.0307 0 19.1282C0 22.1071 0.966053 24.8417 2.57285 27.0211C2.69903 27.186 2.82127 27.353 2.95336 27.5137C3.1446 27.7496 3.33781 27.9834 3.54482 28.2026C3.55074 28.2088 3.55665 28.2151 3.56257 28.2214C5.88109 30.8308 8.82065 32.8139 12.1407 33.8827C15.4628 32.816 18.4003 30.8308 20.7189 28.2214C20.7248 28.2151 20.7307 28.2088 20.7366 28.2026C20.9436 27.9834 21.1368 27.7496 21.3281 27.5137C21.4582 27.353 21.5824 27.186 21.7086 27.0211C23.3154 24.8417 24.2814 22.1071 24.2814 19.1282C24.2775 12.0307 18.8439 6.27539 12.1387 6.27539ZM12.1387 24.0443C9.57575 24.0443 7.49775 21.844 7.49775 19.1303C7.49775 16.4165 9.57575 14.2163 12.1387 14.2163C14.7017 14.2163 16.7797 16.4165 16.7797 19.1303C16.7797 21.844 14.7017 24.0443 12.1387 24.0443Z" fill="#FF7E36"/>
<path d="M16.0908 6.00367C16.8932 5.81789 17.4945 5.0643 17.4945 4.15832C17.4945 3.11456 16.6961 2.26912 15.7103 2.26912C15.4343 2.26912 15.176 2.3401 14.9434 2.45909C14.691 1.05837 13.5337 0 12.1379 0C10.742 0 9.58671 1.05837 9.33632 2.45909C9.10368 2.3401 8.84541 2.26912 8.5694 2.26912C7.58363 2.26912 6.78516 3.11456 6.78516 4.15832C6.78516 5.06221 7.38648 5.81789 8.18889 6.00367C9.42899 5.55069 10.7558 5.29392 12.1418 5.29392C13.5278 5.29392 14.8507 5.55069 16.0908 6.00367Z" fill="#00B493"/>
<path d="M32.9448 19.3193H40.3736C41.2963 19.3193 42.0238 18.7285 42.0238 17.5198C42.0238 16.3112 41.2963 15.7204 40.3736 15.7204H33.9168C33.5757 15.7204 33.3825 15.5138 33.3825 15.1798V12.0965C33.3825 11.7625 33.5757 11.5558 33.9168 11.5558H40.3736C41.2963 11.5558 42.0238 10.9651 42.0238 9.7564C42.0238 8.54774 41.2963 7.95697 40.3736 7.95697H32.9448C30.4213 7.95697 29.2305 9.1385 29.2305 11.3763V15.8999C29.2305 18.1378 30.4213 19.3193 32.9448 19.3193Z" fill="#FF7E36"/>
<path d="M42.2423 20.7596H34.9358C31.6335 20.7596 29.4727 22.6885 29.4727 25.4899C29.4727 28.2413 31.6335 30.168 34.9358 30.168H42.2423C45.5426 30.168 47.7291 28.2392 47.7291 25.4899C47.7291 22.6864 45.5446 20.7596 42.2423 20.7596ZM42.2423 26.542H34.9358C34.1353 26.542 33.6977 26.0786 33.6977 25.4879C33.6977 24.8699 34.1334 24.3836 34.9358 24.3836H42.2423C43.0427 24.3836 43.5041 24.872 43.5041 25.4879C43.5041 26.0786 43.0427 26.542 42.2423 26.542Z" fill="#FF7E36"/>
<path d="M48.4344 11.6331H47.2692V9.27001C47.2692 8.24087 46.4195 7.47058 45.205 7.47058C43.9906 7.47058 43.1172 8.24087 43.1172 9.27001V18.4217C43.1172 19.4487 43.9906 20.2211 45.205 20.2211C46.4175 20.2211 47.2692 19.4508 47.2692 18.4217V15.9271H48.4344C49.3808 15.9271 50.1339 15.0524 50.1339 13.7936C50.1339 12.585 49.3808 11.6331 48.4344 11.6331Z" fill="#FF7E36"/>
<path d="M69.1791 21.3232H52.2101C51.2145 21.3232 50.4141 20.6302 50.4141 19.3693C50.4141 18.1878 51.2145 17.4404 52.2101 17.4404H69.1791C70.1748 17.4404 70.9752 18.1857 70.9752 19.3693C70.9752 20.6302 70.1748 21.3232 69.1791 21.3232ZM65.6836 15.0002V12.6621C65.6836 12.2509 65.4648 12.0192 65.1257 12.0192H53.3517C52.3324 12.0192 51.459 11.3261 51.459 10.0152C51.459 8.75641 52.3324 7.95898 53.3517 7.95898H66.0247C68.5483 7.95898 69.8357 9.34718 69.8357 11.7896V15.0022C69.8357 16.0314 68.9859 16.8017 67.7715 16.8017C66.557 16.8017 65.6836 16.0293 65.6836 15.0002ZM55.7313 23.8679V25.4106C55.7313 25.7195 55.9501 25.9241 56.2892 25.9241H68.4024C69.4216 25.9241 70.297 26.6443 70.297 27.9281C70.297 29.1869 69.4216 29.9321 68.4024 29.9321H55.4139C52.914 29.9321 51.5792 28.8007 51.5792 26.4105V23.8658C51.5792 22.8367 52.429 22.0664 53.6434 22.0664C54.8579 22.0705 55.7313 22.8408 55.7313 23.8679Z" fill="#FF7E36"/>
<path d="M73.0938 25.8743V11.0426C73.0938 9.01142 74.0637 7.95723 76.055 7.95723H81.4688C83.4601 7.95723 84.4301 9.01142 84.4301 11.0426V25.8743C84.4301 27.9055 83.4601 28.9597 81.4688 28.9597H76.055C74.0637 28.9597 73.0938 27.9055 73.0938 25.8743ZM80.5225 24.4611V12.4579C80.5225 12.1761 80.3766 11.9945 80.1341 11.9945H77.4154C77.1729 11.9945 77.027 12.174 77.027 12.4579V24.4611C77.027 24.7429 77.1729 24.9245 77.4154 24.9245H80.1341C80.3766 24.9224 80.5225 24.7429 80.5225 24.4611ZM86.9793 28.2645V9.39761C86.9793 8.31837 87.8527 7.46875 89.0671 7.46875C90.2796 7.46875 91.1313 8.31628 91.1313 9.39761V15.5662H92.2965C93.2429 15.5662 93.996 16.5181 93.996 17.7247C93.996 19.0106 93.2429 19.9103 92.2965 19.9103H91.1313V28.2645C91.1313 29.3438 90.2816 30.1934 89.0671 30.1934C87.8527 30.1934 86.9793 29.3438 86.9793 28.2645Z" fill="#FF7E36"/>
<path d="M104.631 12.6101H105.481V9.21795C105.481 8.24099 106.234 7.57299 107.374 7.57299C108.513 7.57299 109.219 8.24099 109.219 9.21795V19.3716C109.219 20.3485 108.515 21.0165 107.374 21.0165C106.232 21.0165 105.481 20.3485 105.481 19.3716V16.3885H104.631C104.17 16.3885 103.758 16.1568 103.49 15.7205C102.348 18.3946 100.335 20.5531 97.5418 21.8641C96.6428 22.2753 95.6728 22.0186 95.1641 21.1188C94.6535 20.2191 94.9946 19.0626 95.7714 18.7036C97.0332 18.1128 98.0781 17.3154 98.8785 16.3134H96.8399C96.0632 16.3134 95.383 15.8249 95.383 14.7457C95.383 13.7437 96.0632 13.178 96.8399 13.178H100.408C100.505 12.7918 100.604 12.3805 100.651 11.9442C100.7 11.6102 100.529 11.3785 100.239 11.3785H96.9622C96.0395 11.3785 95.3849 10.8128 95.3849 9.68138C95.3849 8.60213 96.0395 7.95918 96.9622 7.95918H100.943C103.589 7.95918 104.803 9.29519 104.415 12.3033C104.391 12.4056 104.391 12.535 104.367 12.6373C104.462 12.6101 104.533 12.6101 104.631 12.6101ZM112.06 29.782C109.537 29.2163 106.526 27.7509 104.559 26.0808C102.737 27.9826 100.31 29.3708 97.7606 29.9114C96.8853 30.0909 95.866 29.6547 95.5506 28.5232C95.2588 27.444 95.7694 26.467 96.6921 26.2103C99.4838 25.44 101.814 23.7178 102.979 21.4299C103.344 20.7368 104.314 20.2734 105.432 20.6324C106.597 21.0186 107.058 22.1751 106.719 22.9976L106.696 23.0498C108.322 24.463 110.725 25.5694 113.079 26.108C113.979 26.3146 114.513 27.2895 114.221 28.3959C113.929 29.5231 112.957 29.9866 112.06 29.782ZM110.142 20.0646V9.11566C110.142 8.13871 110.919 7.4707 112.084 7.4707C113.249 7.4707 114.002 8.13871 114.002 9.11566V20.0667C114.002 21.0437 113.249 21.7117 112.084 21.7117C110.919 21.7117 110.142 21.0416 110.142 20.0646Z" fill="#FF7E36"/>
</svg>
