<?xml version="1.0" encoding="UTF-8"?>
<svg id="Layer_1" data-name="Layer 1" xmlns="http://www.w3.org/2000/svg" viewBox="0 0 1397 478.74">
  <defs>
    <style>
      .cls-1 {
        fill: #f57214;
      }

      .cls-2 {
        fill: #fa7012;
      }

      .cls-3 {
        fill: #03b392;
      }

      .cls-4 {
        fill: #00b493;
      }

      .cls-5 {
        fill: #68985d;
      }

      .cls-6 {
        fill: #ed7418;
      }

      .cls-7 {
        fill: #f27316;
      }

      .cls-8 {
        fill: #f77113;
      }

      .cls-9 {
        fill: #e8751b;
      }

      .cls-10 {
        fill: #e5761c;
      }

      .cls-11 {
        fill: #ea751a;
      }

      .cls-12 {
        fill: #ef7317;
      }

      .cls-13 {
        fill: #fc7010;
      }

      .cls-14 {
        fill: #ff6f0f;
      }

      .cls-15 {
        fill: #7d9252;
      }

      .cls-16 {
        fill: #978b45;
      }

      .cls-17 {
        fill: #6b975c;
      }

      .cls-18 {
        fill: #7f9251;
      }

      .cls-19 {
        fill: #9c8a42;
      }

      .cls-20 {
        fill: #9f8941;
      }

      .cls-21 {
        fill: #928d48;
      }

      .cls-22 {
        fill: #b68335;
      }

      .cls-23 {
        fill: #8a8f4c;
      }

      .cls-24 {
        fill: #b98233;
      }

      .cls-25 {
        fill: #a1883f;
      }

      .cls-26 {
        fill: #c37f2e;
      }

      .cls-27 {
        fill: #b48336;
      }

      .cls-28 {
        fill: #8f8d49;
      }

      .cls-29 {
        fill: #65995e;
      }

      .cls-30 {
        fill: #729558;
      }

      .cls-31 {
        fill: #31a779;
      }

      .cls-32 {
        fill: #bb8132;
      }

      .cls-33 {
        fill: #2fa77b;
      }

      .cls-34 {
        fill: #8d8e4a;
      }

      .cls-35 {
        fill: #85904e;
      }

      .cls-36 {
        fill: #ce7c29;
      }

      .cls-37 {
        fill: #ae8539;
      }

      .cls-38 {
        fill: #a7873d;
      }

      .cls-39 {
        fill: #a9863b;
      }

      .cls-40 {
        fill: #d87a23;
      }

      .cls-41 {
        fill: #b18437;
      }

      .cls-42 {
        fill: #a4883e;
      }

      .cls-43 {
        fill: #be8131;
      }

      .cls-44 {
        fill: #c1802f;
      }

      .cls-45 {
        fill: #cb7d2a;
      }

      .cls-46 {
        fill: #d37b26;
      }

      .cls-47 {
        fill: #e0771f;
      }

      .cls-48 {
        fill: #d07c27;
      }

      .cls-49 {
        fill: #dd7821;
      }

      .cls-50 {
        fill: #d57a25;
      }

      .cls-51 {
        fill: #db7922;
      }

      .cls-52 {
        fill: #ac863a;
      }

      .cls-53 {
        fill: #c67e2d;
      }

      .cls-54 {
        fill: #e2771e;
      }

      .cls-55 {
        fill: #c87e2b;
      }

      .cls-56 {
        fill: #10b08b;
      }

      .cls-57 {
        fill: #15ae88;
      }

      .cls-58 {
        fill: #22ab81;
      }

      .cls-59 {
        fill: #1dac84;
      }

      .cls-60 {
        fill: #1fac83;
      }

      .cls-61 {
        fill: #41a271;
      }

      .cls-62 {
        fill: #05b390;
      }

      .cls-63 {
        fill: #12af8a;
      }

      .cls-64 {
        fill: #08b28f;
      }

      .cls-65 {
        fill: #0db08c;
      }

      .cls-66 {
        fill: #1aad86;
      }

      .cls-67 {
        fill: #34a678;
      }

      .cls-68 {
        fill: #17ae87;
      }

      .cls-69 {
        fill: #3ea373;
      }

      .cls-70 {
        fill: #3ca474;
      }

      .cls-71 {
        fill: #0ab18e;
      }

      .cls-72 {
        fill: #948c46;
      }

      .cls-73 {
        fill: #6d965a;
      }

      .cls-74 {
        fill: #709659;
      }

      .cls-75 {
        fill: #539d68;
      }

      .cls-76 {
        fill: #878f4d;
      }

      .cls-77 {
        fill: #9a8a44;
      }

      .cls-78 {
        fill: #639960;
      }

      .cls-79 {
        fill: #27a97f;
      }

      .cls-80 {
        fill: #589c65;
      }

      .cls-81 {
        fill: #2aa97d;
      }

      .cls-82 {
        fill: #49a06d;
      }

      .cls-83 {
        fill: #5b9b64;
      }

      .cls-84 {
        fill: #24aa80;
      }

      .cls-85 {
        fill: #39a575;
      }

      .cls-86 {
        fill: #37a577;
      }

      .cls-87 {
        fill: #569d67;
      }

      .cls-88 {
        fill: #2ca87c;
      }

      .cls-89 {
        fill: #5e9b63;
      }

      .cls-90 {
        fill: #44a270;
      }

      .cls-91 {
        fill: #789455;
      }

      .cls-92 {
        fill: #609a61;
      }

      .cls-93 {
        fill: #4ba06c;
      }

      .cls-94 {
        fill: #46a16f;
      }

      .cls-95 {
        fill: #519e69;
      }

      .cls-96 {
        fill: #4e9f6b;
      }

      .cls-97 {
        fill: #759456;
      }

      .cls-98 {
        fill: #829150;
      }

      .cls-99 {
        fill: #7a9354;
      }
    </style>
  </defs>
  <rect class="cls-55" x="298.99" width="7.13" height="276.86"/>
  <rect class="cls-53" x="313.23" width="7.13" height="276.86"/>
  <path class="cls-45" d="M284.76,363.56c.47,.17,.95,.34,1.41,.52,2.5,1.25,4.38,2.86,5.72,4.71v-84.34c-2.35-.4-4.72-.78-7.13-1.13v80.24Z"/>
  <rect class="cls-24" x="384.42" width="7.13" height="276.86"/>
  <rect class="cls-26" x="327.47" width="7.13" height="276.86"/>
  <rect class="cls-44" x="341.71" width="7.13" height="276.86"/>
  <rect class="cls-43" x="355.95" width="7.13" height="276.86"/>
  <polygon class="cls-9" points="135.27 178.13 128.14 178.78 128.14 267.24 135.27 266.52 135.27 178.13"/>
  <polygon class="cls-47" points="177.98 174.2 170.85 174.85 170.85 262.93 177.98 262.21 177.98 174.2"/>
  <polygon class="cls-51" points="199.33 260.06 206.46 259.34 206.46 171.58 199.33 172.23 199.33 260.06"/>
  <polygon class="cls-54" points="163.74 175.51 156.62 176.16 156.62 264.37 163.74 263.65 163.74 175.51"/>
  <polygon class="cls-40" points="220.7 170.27 213.57 170.92 213.57 258.63 220.7 257.91 220.7 170.27"/>
  <polygon class="cls-10" points="149.51 176.82 142.38 177.47 142.38 265.8 149.51 265.09 149.51 176.82"/>
  <polygon class="cls-11" points="113.9 268.68 121.03 267.96 121.03 179.44 113.9 180.09 113.9 268.68"/>
  <rect class="cls-3" x="1381.07" y="338.11" width="7.13" height="98"/>
  <rect class="cls-64" x="1352.59" y="338.11" width="7.13" height="98"/>
  <rect class="cls-62" x="1366.83" y="338.11" width="7.13" height="98"/>
  <rect class="cls-71" x="1338.35" y="338.11" width="7.13" height="98"/>
  <rect class="cls-63" x="1295.64" y="338.11" width="7.13" height="98"/>
  <rect class="cls-65" x="1324.12" y="338.11" width="7.13" height="98"/>
  <rect class="cls-32" x="370.18" width="7.13" height="276.86"/>
  <rect class="cls-56" x="1309.88" y="338.11" width="7.13" height="98"/>
  <polygon class="cls-2" points="35.6 29.4 28.48 29.4 28.48 277.29 35.6 276.57 35.6 29.4"/>
  <polygon class="cls-13" points="14.24 278.72 21.37 278.01 21.37 29.4 14.24 29.4 14.24 278.72"/>
  <polygon class="cls-8" points="49.84 29.4 42.71 29.4 42.71 275.85 49.84 275.13 49.84 29.4"/>
  <polygon class="cls-4" points="1395.31 234.74 1395.31 238.13 1397 236.44 1395.31 234.74"/>
  <polygon class="cls-3" points="1381.07 220.5 1381.07 252.37 1388.2 245.24 1388.2 227.63 1381.07 220.5"/>
  <rect class="cls-80" x="911.22" y="338.11" width="2.94" height="98"/>
  <rect class="cls-40" x="213.57" y="29.4" width="7.13" height="82.32"/>
  <rect class="cls-54" x="156.62" y="29.4" width="7.13" height="82.32"/>
  <rect class="cls-10" x="142.38" y="29.4" width="7.13" height="82.32"/>
  <rect class="cls-57" x="1281.4" y="338.11" width="7.13" height="98"/>
  <rect class="cls-49" x="185.09" y="29.4" width="7.13" height="82.32"/>
  <rect class="cls-51" x="199.33" y="29.4" width="7.13" height="82.32"/>
  <rect class="cls-11" x="113.9" y="29.4" width="7.13" height="82.32"/>
  <rect class="cls-47" x="170.85" y="29.4" width="7.13" height="82.32"/>
  <rect class="cls-9" x="128.14" y="29.4" width="7.13" height="82.32"/>
  <polygon class="cls-1" points="56.95 274.42 64.08 273.7 64.08 29.4 56.95 29.4 56.95 274.42"/>
  <path class="cls-8" d="M49.84,352.41c-3.14,8.36-4.76,17.33-4.76,26.86s1.62,19.13,4.76,27.64v-54.51Z"/>
  <polygon class="cls-49" points="185.09 261.5 192.22 260.78 192.22 172.89 185.09 173.54 185.09 261.5"/>
  <path class="cls-1" d="M64.08,328.89c-2.65,3.03-5.02,6.18-7.13,9.44v82.82c2.11,3.29,4.48,6.45,7.13,9.46v-101.73Z"/>
  <polygon class="cls-12" points="85.43 271.55 92.56 270.83 92.56 29.4 85.43 29.4 85.43 271.55"/>
  <polygon class="cls-7" points="71.19 272.98 78.32 272.26 78.32 29.4 71.19 29.4 71.19 272.98"/>
  <polygon class="cls-6" points="99.66 270.11 106.79 269.39 106.79 180.75 105.84 180.84 105.84 111.72 106.79 111.72 106.79 29.4 99.66 29.4 99.66 270.11"/>
  <path class="cls-48" d="M263.41,280.86c-2.35-.2-4.72-.39-7.13-.55v76.62c2.46,.31,4.83,.66,7.13,1.05v-77.12Z"/>
  <path class="cls-50" d="M234.93,279.4c-2.36-.04-4.73-.07-7.13-.08v75.96c2.44,.01,4.82,.05,7.13,.11v-75.99Z"/>
  <path class="cls-46" d="M249.17,279.89c-2.36-.12-4.73-.22-7.13-.31v76.1c2.45,.13,4.83,.3,7.13,.5v-76.29Z"/>
  <path class="cls-40" d="M220.7,279.34c-2.4,.03-4.77,.07-7.13,.13v76.03c2.31-.09,4.68-.16,7.13-.2v-75.97Z"/>
  <path class="cls-51" d="M206.46,279.71c-2.4,.1-4.78,.21-7.13,.35v76.4c2.3-.23,4.67-.43,7.13-.59v-76.16Z"/>
  <path class="cls-49" d="M192.22,280.53c-2.4,.18-4.78,.38-7.13,.6v77.37c2.29-.44,4.67-.83,7.13-1.18v-76.79Z"/>
  <polygon class="cls-50" points="227.8 257.19 234.93 256.47 234.93 168.96 227.8 169.61 227.8 257.19"/>
  <polygon class="cls-46" points="242.04 255.76 249.17 255.04 249.17 167.65 242.04 168.3 242.04 255.76"/>
  <path class="cls-36" d="M277.65,282.36c-2.35-.29-4.72-.57-7.13-.83v77.84c2.47,.56,4.84,1.17,7.13,1.84v-78.85Z"/>
  <polygon class="cls-48" points="256.28 254.32 263.41 253.6 263.41 166.34 256.28 166.99 256.28 254.32"/>
  <rect class="cls-50" x="227.8" y="29.4" width="6.91" height="82.32"/>
  <polygon class="cls-45" points="284.76 251.45 291.88 250.73 291.88 163.72 284.76 164.37 284.76 251.45"/>
  <polygon class="cls-36" points="270.52 252.88 277.65 252.17 277.65 165.03 270.52 165.68 270.52 252.88"/>
  <rect class="cls-85" x="1082.07" y="338.11" width="7.13" height="98"/>
  <polygon class="cls-31" points="1124.79 184.98 1131.92 177.85 1131.92 28.65 1124.79 35.78 1124.79 184.98"/>
  <polygon class="cls-79" points="1181.74 170.37 1188.87 177.5 1188.87 28.3 1181.74 21.17 1181.74 170.37"/>
  <polygon class="cls-86" points="1096.31 213.46 1103.44 206.33 1103.44 57.13 1096.31 64.26 1096.31 213.46"/>
  <polygon class="cls-85" points="1082.07 227.69 1089.2 220.56 1089.2 71.36 1082.07 78.49 1082.07 227.69"/>
  <polygon class="cls-33" points="1139.02 170.74 1146.15 163.61 1146.15 14.41 1139.02 21.54 1139.02 170.74"/>
  <rect class="cls-68" x="1267.16" y="338.11" width="7.13" height="98"/>
  <polygon class="cls-88" points="1153.26 156.5 1160.39 149.38 1160.39 .18 1153.26 7.3 1153.26 156.5"/>
  <polygon class="cls-67" points="1110.55 199.22 1117.68 192.09 1117.68 42.89 1110.55 50.02 1110.55 199.22"/>
  <polygon class="cls-90" points="1025.12 284.64 1032.25 277.52 1032.25 128.32 1025.12 135.44 1025.12 284.64"/>
  <polygon class="cls-94" points="1010.88 298.88 1018.01 291.75 1018.01 142.55 1010.88 149.68 1010.88 298.88"/>
  <polygon class="cls-70" points="1067.84 241.93 1074.96 234.8 1074.96 85.6 1067.84 92.73 1067.84 241.93"/>
  <polygon class="cls-82" points="996.65 308.95 998.73 311.03 1003.78 305.99 1003.78 156.79 996.65 163.92 996.65 308.95"/>
  <polygon class="cls-69" points="1053.6 256.17 1060.73 249.04 1060.73 99.84 1053.6 106.97 1053.6 256.17"/>
  <polygon class="cls-61" points="1039.36 270.41 1046.49 263.28 1046.49 114.08 1039.36 121.21 1039.36 270.41"/>
  <polygon class="cls-93" points="982.41 294.71 989.54 301.84 989.54 171.03 982.41 178.16 982.41 294.71"/>
  <polygon class="cls-65" points="1324.12 309.32 1331.24 302.19 1331.24 170.68 1324.12 163.55 1324.12 309.32"/>
  <polygon class="cls-63" points="1295.64 284.27 1302.77 291.4 1302.77 142.2 1295.64 135.07 1295.64 284.27"/>
  <polygon class="cls-56" points="1309.88 298.51 1317.01 305.64 1317.01 156.44 1309.88 149.31 1309.88 298.51"/>
  <polygon class="cls-71" points="1338.35 295.08 1345.48 287.96 1345.48 184.91 1338.35 177.79 1338.35 295.08"/>
  <polygon class="cls-64" points="1352.59 280.85 1359.72 273.72 1359.72 199.15 1352.59 192.02 1352.59 280.85"/>
  <polygon class="cls-62" points="1373.96 213.39 1366.83 206.26 1366.83 266.61 1373.96 259.48 1373.96 213.39"/>
  <polygon class="cls-84" points="1195.98 184.61 1203.1 191.74 1203.1 42.54 1195.98 35.41 1195.98 184.61"/>
  <polygon class="cls-60" points="1224.45 213.08 1231.58 220.21 1231.58 71.01 1224.45 63.88 1224.45 213.08"/>
  <polygon class="cls-58" points="1210.21 198.85 1217.34 205.97 1217.34 56.77 1210.21 49.65 1210.21 198.85"/>
  <polygon class="cls-59" points="1238.69 227.32 1245.82 234.45 1245.82 85.25 1238.69 78.12 1238.69 227.32"/>
  <polygon class="cls-68" points="1267.16 255.8 1274.29 262.93 1274.29 113.73 1267.16 106.6 1267.16 255.8"/>
  <polygon class="cls-66" points="1252.93 241.56 1260.06 248.69 1260.06 99.49 1252.93 92.36 1252.93 241.56"/>
  <polygon class="cls-57" points="1281.4 270.03 1288.53 277.16 1288.53 127.96 1281.4 120.84 1281.4 270.03"/>
  <polygon class="cls-81" points="1167.5 156.13 1174.63 163.26 1174.63 14.06 1167.5 6.93 1167.5 156.13"/>
  <rect class="cls-33" x="1139.02" y="244.52" width="7.13" height="191.6"/>
  <rect class="cls-31" x="1124.79" y="244.52" width="7.13" height="191.6"/>
  <rect class="cls-88" x="1153.26" y="244.52" width="7.13" height="191.6"/>
  <rect class="cls-81" x="1167.5" y="244.52" width="7.13" height="191.6"/>
  <rect class="cls-70" x="1067.84" y="338.11" width="7.13" height="98"/>
  <rect class="cls-67" x="1110.55" y="244.52" width="7.13" height="191.6"/>
  <rect class="cls-86" x="1096.31" y="338.11" width="7.13" height="98"/>
  <path class="cls-7" d="M78.32,315.72c-2.51,1.91-4.89,3.89-7.13,5.94v116.17c2.24,2.03,4.62,3.99,7.13,5.87v-127.97Z"/>
  <rect class="cls-60" x="1224.45" y="338.11" width="7.13" height="98"/>
  <rect class="cls-59" x="1238.69" y="338.11" width="7.13" height="98"/>
  <rect class="cls-79" x="1181.74" y="244.52" width="7.13" height="191.6"/>
  <rect class="cls-66" x="1252.93" y="338.11" width="7.13" height="98"/>
  <rect class="cls-84" x="1195.98" y="244.52" width="7.13" height="191.6"/>
  <polygon class="cls-58" points="1217.34 338.11 1213.32 338.11 1213.32 244.52 1210.21 244.52 1210.21 436.11 1217.34 436.11 1217.34 338.11"/>
  <rect class="cls-69" x="1053.6" y="338.11" width="7.13" height="98"/>
  <rect class="cls-87" x="928.98" y="338.11" width="3.61" height="98"/>
  <polygon class="cls-87" points="925.46 237.76 932.59 244.89 932.59 227.98 925.46 235.11 925.46 237.76"/>
  <rect class="cls-75" x="939.7" y="338.11" width="7.13" height="98"/>
  <rect class="cls-95" x="953.93" y="338.11" width="7.13" height="98"/>
  <polygon class="cls-95" points="953.93 266.24 961.06 273.37 961.06 199.51 953.93 206.63 953.93 266.24"/>
  <polygon class="cls-75" points="939.7 252 946.82 259.13 946.82 213.74 939.7 220.87 939.7 252"/>
  <polygon class="cls-96" points="968.17 280.47 975.3 287.6 975.3 185.27 968.17 192.4 968.17 280.47"/>
  <rect class="cls-90" x="1025.12" y="338.11" width="7.13" height="98"/>
  <rect class="cls-61" x="1039.36" y="338.11" width="7.13" height="98"/>
  <rect class="cls-96" x="968.17" y="338.11" width="7.13" height="98"/>
  <rect class="cls-94" x="1010.88" y="338.11" width="7.13" height="98"/>
  <rect class="cls-82" x="996.65" y="338.11" width="7.13" height="98"/>
  <rect class="cls-93" x="982.41" y="338.11" width="7.13" height="98"/>
  <path class="cls-47" d="M177.98,281.86c-2.4,.27-4.78,.56-7.13,.88v79.33c2.29-.73,4.66-1.4,7.13-2.02v-78.18Z"/>
  <rect class="cls-21" x="597.99" y="34.3" width="7.13" height="91.63"/>
  <rect class="cls-72" x="583.75" y="34.3" width="7.13" height="91.63"/>
  <rect class="cls-28" x="612.23" y="34.3" width="7.13" height="91.63"/>
  <rect class="cls-16" x="569.51" y="34.3" width="7.13" height="91.63"/>
  <rect class="cls-76" x="654.94" y="34.3" width="7.13" height="91.63"/>
  <rect class="cls-23" x="640.7" y="34.3" width="7.13" height="91.63"/>
  <rect class="cls-34" x="626.46" y="34.3" width="7.13" height="91.63"/>
  <rect class="cls-19" x="541.04" y="34.3" width="7.13" height="91.63"/>
  <rect class="cls-25" x="512.56" y="34.3" width="7.13" height="91.63"/>
  <rect class="cls-77" x="555.27" y="34.3" width="7.13" height="91.63"/>
  <rect class="cls-42" x="498.32" y="338.11" width="7.13" height="98"/>
  <rect class="cls-42" x="498.32" y="34.3" width="7.13" height="91.63"/>
  <rect class="cls-35" x="669.18" y="34.3" width="7.13" height="91.63"/>
  <rect class="cls-20" x="526.8" y="34.3" width="7.13" height="91.63"/>
  <rect class="cls-29" x="840.03" y="34.3" width="7.13" height="91.63"/>
  <rect class="cls-74" x="783.08" y="34.3" width="7.13" height="91.63"/>
  <rect class="cls-5" x="825.79" y="34.3" width="7.13" height="91.63"/>
  <rect class="cls-73" x="797.32" y="34.3" width="7.13" height="91.63"/>
  <rect class="cls-17" x="811.56" y="34.3" width="7.13" height="91.63"/>
  <rect class="cls-92" x="868.51" y="34.3" width="1.56" height="91.63"/>
  <rect class="cls-25" x="512.56" y="338.11" width="7.13" height="98"/>
  <rect class="cls-18" x="697.65" y="34.3" width="7.13" height="91.63"/>
  <rect class="cls-15" x="711.89" y="34.3" width="7.13" height="91.63"/>
  <rect class="cls-99" x="726.13" y="34.3" width="7.13" height="91.63"/>
  <rect class="cls-98" x="683.41" y="34.3" width="7.13" height="91.63"/>
  <rect class="cls-30" x="768.84" y="34.3" width="7.13" height="91.63"/>
  <rect class="cls-97" x="754.6" y="34.3" width="7.13" height="91.63"/>
  <rect class="cls-91" x="740.37" y="34.3" width="7.13" height="91.63"/>
  <rect class="cls-23" x="640.7" y="338.11" width="7.13" height="98"/>
  <rect class="cls-73" x="797.32" y="338.11" width="7.13" height="98"/>
  <rect class="cls-5" x="825.79" y="338.11" width="7.13" height="98"/>
  <rect class="cls-74" x="783.08" y="338.11" width="7.13" height="98"/>
  <rect class="cls-17" x="811.56" y="338.11" width="7.13" height="98"/>
  <rect class="cls-91" x="740.37" y="338.11" width="7.13" height="98"/>
  <rect class="cls-97" x="754.6" y="338.11" width="7.13" height="98"/>
  <rect class="cls-30" x="768.84" y="338.11" width="7.13" height="98"/>
  <rect class="cls-29" x="840.03" y="338.11" width="7.13" height="98"/>
  <rect class="cls-89" x="882.74" y="338.11" width="7.13" height="98"/>
  <rect class="cls-83" x="896.98" y="338.11" width="7.13" height="98"/>
  <rect class="cls-99" x="726.13" y="338.11" width="7.13" height="98"/>
  <polygon class="cls-14" points="7.13 29.4 0 29.4 0 280.16 7.13 279.44 7.13 29.4"/>
  <rect class="cls-92" x="868.51" y="338.11" width="7.13" height="98"/>
  <rect class="cls-78" x="854.27" y="338.11" width="7.13" height="98"/>
  <rect class="cls-18" x="697.65" y="338.11" width="7.13" height="98"/>
  <rect class="cls-28" x="612.23" y="338.11" width="7.13" height="98"/>
  <rect class="cls-16" x="569.51" y="338.11" width="7.13" height="98"/>
  <rect class="cls-21" x="597.99" y="338.11" width="7.13" height="98"/>
  <rect class="cls-72" x="583.75" y="338.11" width="7.13" height="98"/>
  <rect class="cls-15" x="711.89" y="338.11" width="7.13" height="98"/>
  <rect class="cls-77" x="555.27" y="338.11" width="7.13" height="98"/>
  <rect class="cls-19" x="541.04" y="338.11" width="7.13" height="98"/>
  <rect class="cls-98" x="683.41" y="338.11" width="7.13" height="98"/>
  <rect class="cls-35" x="669.18" y="338.11" width="7.13" height="98"/>
  <rect class="cls-34" x="626.46" y="338.11" width="7.13" height="98"/>
  <rect class="cls-20" x="526.8" y="338.11" width="7.13" height="98"/>
  <rect class="cls-76" x="654.94" y="338.11" width="7.13" height="98"/>
  <rect class="cls-78" x="854.27" y="34.3" width="7.13" height="91.63"/>
  <rect class="cls-39" x="469.85" y="338.11" width="7.13" height="98"/>
  <path class="cls-24" d="M391.55,333.84c-2.16-2.86-4.53-5.61-7.13-8.27v108.36c2.59-2.64,4.97-5.39,7.13-8.25v-91.84Z"/>
  <path class="cls-43" d="M363.07,308.87c-2.29-1.39-4.67-2.74-7.13-4.05v149.54c2.46-1.27,4.84-2.59,7.13-3.95v-141.55Z"/>
  <path class="cls-32" d="M377.31,319c-2.25-1.89-4.63-3.71-7.13-5.48v132.33c2.5-1.73,4.87-3.53,7.13-5.4v-121.45Z"/>
  <path class="cls-44" d="M348.84,301.3c-2.31-1.07-4.69-2.11-7.13-3.11v162.61c2.44-.97,4.82-1.97,7.13-3.01v-156.49Z"/>
  <path class="cls-55" d="M306.12,287.24c-2.34-.52-4.72-1.01-7.13-1.49v186.94c2.41-.45,4.79-.91,7.13-1.41v-184.05Z"/>
  <path class="cls-53" d="M320.36,290.85c-2.34-.67-4.71-1.31-7.13-1.92v180.76c2.42-.58,4.79-1.19,7.13-1.83v-177.01Z"/>
  <path class="cls-26" d="M334.6,295.44c-2.33-.84-4.7-1.66-7.13-2.44v172.78c2.43-.75,4.8-1.53,7.13-2.34v-168Z"/>
  <rect class="cls-41" x="427.13" y="106.33" width="7.13" height="95.55"/>
  <rect class="cls-37" x="441.37" y="106.33" width="7.13" height="95.55"/>
  <path class="cls-45" d="M291.88,385.63c-1.34,1.82-3.21,3.46-5.72,4.92-.46,.16-.94,.32-1.41,.48v83.97c2.41-.33,4.78-.69,7.13-1.07v-88.3Z"/>
  <rect class="cls-52" x="455.61" y="338.11" width="7.13" height="98"/>
  <rect class="cls-78" x="854.27" y="204.34" width="7.13" height="89.18"/>
  <polygon class="cls-22" points="399.36 106.33 399.36 0 398.66 0 398.66 276.86 399.36 276.86 399.36 201.89 405.79 201.89 405.79 106.33 399.36 106.33"/>
  <rect class="cls-27" x="412.9" y="106.33" width="7.13" height="95.55"/>
  <path class="cls-11" d="M121.03,293.95c-2.43,.82-4.81,1.68-7.13,2.56v165.9c2.32,.85,4.7,1.68,7.13,2.47v-170.93Z"/>
  <path class="cls-47" d="M177.98,394.29c-2.46-.58-4.84-1.2-7.13-1.88v83.14c2.35,.29,4.72,.57,7.13,.82v-82.08Z"/>
  <path class="cls-9" d="M135.27,289.67c-2.42,.64-4.8,1.31-7.13,2.01v175.37c2.33,.67,4.71,1.31,7.13,1.92v-179.3Z"/>
  <path class="cls-54" d="M163.74,389.58c-4.42-3.28-6.45-7.37-6.45-12.27s2.03-9.39,6.45-12.37v-81.17c-2.41,.38-4.78,.78-7.13,1.2v188.48c2.34,.4,4.72,.78,7.13,1.13v-85Z"/>
  <path class="cls-10" d="M149.51,286.33c-2.41,.5-4.79,1.02-7.13,1.57v182.77c2.34,.52,4.71,1.02,7.13,1.49v-185.83Z"/>
  <path class="cls-12" d="M92.56,306.42c-2.47,1.39-4.84,2.82-7.13,4.31v137.88c2.29,1.45,4.66,2.86,7.13,4.21v-146.39Z"/>
  <path class="cls-6" d="M106.79,299.4c-2.44,1.06-4.82,2.15-7.13,3.28v153.76c2.31,1.1,4.69,2.16,7.13,3.18v-160.22Z"/>
  <path class="cls-46" d="M249.17,397.97c-2.3,.19-4.68,.35-7.13,.48v80.04c2.4-.08,4.77-.17,7.13-.28v-80.24Z"/>
  <path class="cls-49" d="M192.22,396.88c-2.46-.33-4.84-.71-7.13-1.12v81.3c2.35,.21,4.73,.39,7.13,.56v-80.74Z"/>
  <path class="cls-50" d="M234.93,398.75c-2.31,.06-4.69,.1-7.13,.11v79.88c2.4,0,4.77-.03,7.13-.07v-79.92Z"/>
  <path class="cls-48" d="M263.41,396.24c-2.3,.37-4.67,.71-7.13,1.01v80.57c2.4-.15,4.77-.33,7.13-.52v-81.06Z"/>
  <path class="cls-36" d="M277.65,393.2c-2.29,.62-4.66,1.2-7.13,1.72v81.76c2.41-.24,4.78-.5,7.13-.78v-82.7Z"/>
  <path class="cls-51" d="M206.46,398.28c-2.45-.16-4.83-.35-7.13-.58v80.35c2.35,.13,4.73,.23,7.13,.33v-80.1Z"/>
  <path class="cls-40" d="M220.7,398.83c-2.45-.04-4.82-.11-7.13-.19v79.96c2.36,.06,4.73,.1,7.13,.12v-79.89Z"/>
  <path class="cls-22" d="M405.79,367.19c-1.21-7.8-3.6-15.16-7.13-22.05v69.15c3.53-6.97,5.92-14.49,7.13-22.52v-24.59Z"/>
  <polygon class="cls-91" points="747.49 143.57 740.37 143.09 740.37 293.52 747.49 293.52 747.49 143.57"/>
  <polygon class="cls-99" points="733.26 142.62 726.13 142.15 726.13 293.52 733.26 293.52 733.26 142.62"/>
  <polygon class="cls-97" points="761.73 144.52 754.6 144.04 754.6 293.52 761.73 293.52 761.73 144.52"/>
  <polygon class="cls-30" points="775.97 145.47 768.84 144.99 768.84 293.52 775.97 293.52 775.97 145.47"/>
  <polygon class="cls-15" points="719.02 141.67 711.89 141.2 711.89 293.52 719.02 293.52 719.02 141.67"/>
  <rect class="cls-35" x="669.18" y="204.34" width="7.13" height="89.18"/>
  <rect class="cls-18" x="697.65" y="204.34" width="7.13" height="89.18"/>
  <rect class="cls-98" x="683.41" y="204.34" width="7.13" height="89.18"/>
  <polygon class="cls-74" points="790.21 146.42 783.08 145.94 783.08 293.52 790.21 293.52 790.21 146.42"/>
  <rect class="cls-5" x="825.79" y="204.34" width="7.13" height="89.18"/>
  <rect class="cls-29" x="840.03" y="204.34" width="7.13" height="89.18"/>
  <rect class="cls-17" x="811.56" y="204.34" width="7.13" height="89.18"/>
  <polygon class="cls-73" points="804.45 147.37 797.32 146.89 797.32 293.52 804.45 293.52 804.45 147.37"/>
  <polygon class="cls-17" points="811.56 200.07 818.68 161.37 818.68 148.32 811.56 147.84 811.56 200.07"/>
  <rect class="cls-25" x="512.56" y="204.34" width="7.13" height="89.18"/>
  <rect class="cls-19" x="541.04" y="204.34" width="7.13" height="89.18"/>
  <rect class="cls-20" x="526.8" y="204.34" width="7.13" height="89.18"/>
  <polygon class="cls-19" points="548.17 172.66 548.17 148.18 543.71 148.48 548.17 172.66"/>
  <polygon class="cls-76" points="662.07 204.34 658.86 204.34 654.94 148.07 654.94 293.52 662.07 293.52 662.07 204.34"/>
  <rect class="cls-38" x="484.09" y="338.11" width="7.13" height="98"/>
  <rect class="cls-42" x="498.32" y="204.34" width="7.13" height="89.18"/>
  <polygon class="cls-77" points="562.4 147.23 555.27 147.71 555.27 293.52 562.4 293.52 562.4 147.23"/>
  <polygon class="cls-16" points="576.64 146.29 569.51 146.76 569.51 293.52 576.64 293.52 576.64 146.29"/>
  <polygon class="cls-28" points="619.35 143.45 612.23 143.93 612.23 293.52 619.35 293.52 619.35 143.45"/>
  <polygon class="cls-23" points="647.83 141.56 640.7 142.04 640.7 293.52 647.83 293.52 647.83 141.56"/>
  <polygon class="cls-34" points="633.59 142.51 626.46 142.98 626.46 293.52 633.59 293.52 633.59 142.51"/>
  <polygon class="cls-21" points="605.12 144.4 597.99 144.87 597.99 293.52 605.12 293.52 605.12 144.4"/>
  <polygon class="cls-72" points="590.88 145.34 583.75 145.82 583.75 293.52 590.88 293.52 590.88 145.34"/>
</svg>