<?xml version="1.0" encoding="UTF-8"?>
<svg id="Layer_1" data-name="Layer 1" xmlns="http://www.w3.org/2000/svg" viewBox="0 0 1658.71 810">
  <defs>
    <style>
      .cls-1 {
        fill: #ff7b68;
      }

      .cls-2 {
        fill: #ff87c5;
      }

      .cls-3 {
        fill: #ff7a60;
      }

      .cls-4 {
        fill: #ff7b66;
      }

      .cls-5 {
        fill: #ff7957;
      }

      .cls-6 {
        fill: #ff7a62;
      }

      .cls-7 {
        fill: #ff7a64;
      }

      .cls-8 {
        fill: #ff88cd;
      }

      .cls-9 {
        fill: #ff87c1;
      }

      .cls-10 {
        fill: #ff88cb;
      }

      .cls-11 {
        fill: #ff7c70;
      }

      .cls-12 {
        fill: #ff7c6e;
      }

      .cls-13 {
        fill: #ff7b6c;
      }

      .cls-14 {
        fill: #ff7b6a;
      }

      .cls-15 {
        fill: #ff7959;
      }

      .cls-16 {
        fill: #ff795c;
      }

      .cls-17 {
        fill: #ff795e;
      }

      .cls-18 {
        fill: #ff89cf;
      }

      .cls-19 {
        fill: #ff89d1;
      }

      .cls-20 {
        fill: #ff89d4;
      }

      .cls-21 {
        fill: #ff8ad8;
      }

      .cls-22 {
        fill: #ff8ada;
      }

      .cls-23 {
        fill: #ff8adc;
      }

      .cls-24 {
        fill: #ff89d6;
      }

      .cls-25 {
        fill: #ff6f0f;
      }

      .cls-26 {
        fill: #ff6f11;
      }

      .cls-27 {
        fill: #ff7013;
      }

      .cls-28 {
        fill: #ff7019;
      }

      .cls-29 {
        fill: #ff7015;
      }

      .cls-30 {
        fill: #ff7017;
      }

      .cls-31 {
        fill: #ff8091;
      }

      .cls-32 {
        fill: #ff732a;
      }

      .cls-33 {
        fill: #ff711b;
      }

      .cls-34 {
        fill: #ff7f85;
      }

      .cls-35 {
        fill: #ff7f87;
      }

      .cls-36 {
        fill: #ff7d74;
      }

      .cls-37 {
        fill: #ff7d76;
      }

      .cls-38 {
        fill: #ff7f89;
      }

      .cls-39 {
        fill: #ff7e81;
      }

      .cls-40 {
        fill: #ff7c72;
      }

      .cls-41 {
        fill: #ff7d79;
      }

      .cls-42 {
        fill: #ff7d7b;
      }

      .cls-43 {
        fill: #ff808d;
      }

      .cls-44 {
        fill: #ff7e7f;
      }

      .cls-45 {
        fill: #ff808f;
      }

      .cls-46 {
        fill: #ff7e7d;
      }

      .cls-47 {
        fill: #ff7e83;
      }

      .cls-48 {
        fill: #ff808b;
      }

      .cls-49 {
        fill: #ff7120;
      }

      .cls-50 {
        fill: #ff7122;
      }

      .cls-51 {
        fill: #ff711d;
      }

      .cls-52 {
        fill: #ff7228;
      }

      .cls-53 {
        fill: #ff7224;
      }

      .cls-54 {
        fill: #ff7226;
      }

      .cls-55 {
        fill: #ff732e;
      }

      .cls-56 {
        fill: #ff732c;
      }

      .cls-57 {
        fill: #ff784f;
      }

      .cls-58 {
        fill: #ff7851;
      }

      .cls-59 {
        fill: #ff7330;
      }

      .cls-60 {
        fill: #ff753f;
      }

      .cls-61 {
        fill: #ff7647;
      }

      .cls-62 {
        fill: #ff7432;
      }

      .cls-63 {
        fill: #ff7641;
      }

      .cls-64 {
        fill: #ff7434;
      }

      .cls-65 {
        fill: #ff7436;
      }

      .cls-66 {
        fill: #ff753a;
      }

      .cls-67 {
        fill: #ff753d;
      }

      .cls-68 {
        fill: #ff7538;
      }

      .cls-69 {
        fill: #ff7853;
      }

      .cls-70 {
        fill: #ff7855;
      }

      .cls-71 {
        fill: #ff7643;
      }

      .cls-72 {
        fill: #ff7645;
      }

      .cls-73 {
        fill: #ff774d;
      }

      .cls-74 {
        fill: #ff774b;
      }

      .cls-75 {
        fill: #ff7749;
      }

      .cls-76 {
        fill: #ff8fff;
      }

      .cls-77 {
        fill: #ff8ce8;
      }

      .cls-78 {
        fill: #ff8ffd;
      }

      .cls-79 {
        fill: #ff8ce6;
      }

      .cls-80 {
        fill: #ff8cea;
      }

      .cls-81 {
        fill: #ff8be0;
      }

      .cls-82 {
        fill: #ff8bde;
      }

      .cls-83 {
        fill: #ff8be4;
      }

      .cls-84 {
        fill: #ff8be2;
      }

      .cls-85 {
        fill: #ff8efb;
      }

      .cls-86 {
        fill: #ff8df1;
      }

      .cls-87 {
        fill: #ff8dee;
      }

      .cls-88 {
        fill: #ff8ef5;
      }

      .cls-89 {
        fill: #ff8ef7;
      }

      .cls-90 {
        fill: #ff8ef9;
      }

      .cls-91 {
        fill: #ff8dec;
      }

      .cls-92 {
        fill: #ff8df3;
      }

      .cls-93 {
        fill: #ff8195;
      }

      .cls-94 {
        fill: #ff82a0;
      }

      .cls-95 {
        fill: #ff8198;
      }

      .cls-96 {
        fill: #ff8193;
      }

      .cls-97 {
        fill: #ff819a;
      }

      .cls-98 {
        fill: #ff829c;
      }

      .cls-99 {
        fill: #ff829e;
      }

      .cls-100 {
        fill: #ff84ac;
      }

      .cls-101 {
        fill: #ff84ae;
      }

      .cls-102 {
        fill: #ff83a6;
      }

      .cls-103 {
        fill: #ff83a4;
      }

      .cls-104 {
        fill: #ff83a8;
      }

      .cls-105 {
        fill: #ff83a2;
      }

      .cls-106 {
        fill: #ff85b5;
      }

      .cls-107 {
        fill: #ff85b7;
      }

      .cls-108 {
        fill: #ff85b2;
      }

      .cls-109 {
        fill: #ff85b0;
      }

      .cls-110 {
        fill: #ff84aa;
      }

      .cls-111 {
        fill: #ff86bf;
      }

      .cls-112 {
        fill: #ff87c3;
      }

      .cls-113 {
        fill: #ff88c7;
      }

      .cls-114 {
        fill: #ff88c9;
      }

      .cls-115 {
        fill: #ff86bb;
      }

      .cls-116 {
        fill: #ff86bd;
      }

      .cls-117 {
        fill: #ff86b9;
      }
    </style>
  </defs>
  <rect class="cls-76" width="7.13" height="810"/>
  <rect class="cls-78" x="14.24" width="7.13" height="810"/>
  <rect class="cls-85" x="28.48" width="7.13" height="810"/>
  <rect class="cls-90" x="42.71" width="7.13" height="810"/>
  <rect class="cls-89" x="56.95" width="7.13" height="810"/>
  <rect class="cls-88" x="71.19" width="7.13" height="810"/>
  <rect class="cls-92" x="85.43" width="7.13" height="810"/>
  <rect class="cls-86" x="99.66" width="7.13" height="810"/>
  <rect class="cls-87" x="113.9" width="7.13" height="810"/>
  <rect class="cls-91" x="128.14" width="7.13" height="810"/>
  <rect class="cls-80" x="142.38" width="7.13" height="810"/>
  <rect class="cls-77" x="156.62" width="7.13" height="810"/>
  <rect class="cls-79" x="170.85" width="7.13" height="810"/>
  <rect class="cls-83" x="185.09" width="7.13" height="810"/>
  <rect class="cls-84" x="199.33" width="7.13" height="810"/>
  <rect class="cls-81" x="213.57" width="7.13" height="810"/>
  <rect class="cls-82" x="227.8" width="7.13" height="810"/>
  <rect class="cls-23" x="242.04" width="7.13" height="810"/>
  <rect class="cls-22" x="256.28" width="7.13" height="810"/>
  <rect class="cls-21" x="270.52" width="7.13" height="810"/>
  <rect class="cls-24" x="284.76" width="7.13" height="810"/>
  <rect class="cls-20" x="298.99" width="7.13" height="810"/>
  <rect class="cls-19" x="313.23" width="7.13" height="810"/>
  <rect class="cls-18" x="327.47" width="7.13" height="810"/>
  <rect class="cls-8" x="341.71" width="7.13" height="810"/>
  <rect class="cls-10" x="355.95" width="7.13" height="810"/>
  <rect class="cls-114" x="370.18" width="7.13" height="810"/>
  <rect class="cls-113" x="384.42" width="7.13" height="810"/>
  <rect class="cls-2" x="398.66" width="7.13" height="810"/>
  <rect class="cls-112" x="412.9" width="7.13" height="810"/>
  <rect class="cls-9" x="427.13" width="7.13" height="810"/>
  <rect class="cls-111" x="441.37" width="7.13" height="810"/>
  <rect class="cls-116" x="455.61" width="7.13" height="810"/>
  <rect class="cls-115" x="469.85" width="7.13" height="810"/>
  <rect class="cls-117" x="484.09" width="7.13" height="810"/>
  <rect class="cls-107" x="498.32" width="7.13" height="810"/>
  <rect class="cls-106" x="512.56" width="7.13" height="810"/>
  <rect class="cls-108" x="526.8" width="7.13" height="810"/>
  <rect class="cls-109" x="541.04" width="7.13" height="810"/>
  <rect class="cls-101" x="555.27" width="7.13" height="810"/>
  <rect class="cls-100" x="569.51" width="7.13" height="810"/>
  <rect class="cls-110" x="583.75" width="7.13" height="810"/>
  <rect class="cls-104" x="597.99" width="7.13" height="810"/>
  <rect class="cls-102" x="612.23" width="7.13" height="810"/>
  <rect class="cls-103" x="626.46" width="7.13" height="810"/>
  <rect class="cls-105" x="640.7" width="7.13" height="810"/>
  <rect class="cls-94" x="654.94" width="7.13" height="810"/>
  <rect class="cls-99" x="669.18" width="7.13" height="810"/>
  <rect class="cls-98" x="683.41" width="7.13" height="810"/>
  <rect class="cls-97" x="697.65" width="7.13" height="810"/>
  <rect class="cls-95" x="711.89" width="7.13" height="810"/>
  <rect class="cls-93" x="726.13" width="7.13" height="810"/>
  <rect class="cls-96" x="740.37" width="7.13" height="810"/>
  <rect class="cls-31" x="754.6" width="7.13" height="810"/>
  <rect class="cls-45" x="768.84" width="7.13" height="810"/>
  <rect class="cls-43" x="783.08" width="7.13" height="810"/>
  <rect class="cls-48" x="797.32" width="7.13" height="810"/>
  <rect class="cls-38" x="811.56" width="7.13" height="810"/>
  <rect class="cls-35" x="825.79" width="7.13" height="810"/>
  <rect class="cls-34" x="840.03" width="7.13" height="810"/>
  <rect class="cls-47" x="854.27" width="7.13" height="810"/>
  <rect class="cls-39" x="868.51" width="7.13" height="810"/>
  <rect class="cls-44" x="882.74" width="7.13" height="810"/>
  <rect class="cls-46" x="896.98" width="7.13" height="810"/>
  <rect class="cls-42" x="911.22" width="7.13" height="810"/>
  <rect class="cls-41" x="925.46" width="7.13" height="810"/>
  <rect class="cls-37" x="939.7" width="7.13" height="810"/>
  <rect class="cls-36" x="953.93" width="7.13" height="810"/>
  <rect class="cls-40" x="968.17" width="7.13" height="810"/>
  <rect class="cls-11" x="982.41" width="7.13" height="810"/>
  <rect class="cls-12" x="996.65" width="7.13" height="810"/>
  <rect class="cls-13" x="1010.88" width="7.13" height="810"/>
  <rect class="cls-14" x="1025.12" width="7.13" height="810"/>
  <rect class="cls-1" x="1039.36" width="7.13" height="810"/>
  <rect class="cls-4" x="1053.6" width="7.13" height="810"/>
  <rect class="cls-7" x="1067.84" width="7.13" height="810"/>
  <rect class="cls-6" x="1082.07" width="7.13" height="810"/>
  <rect class="cls-3" x="1096.31" width="7.13" height="810"/>
  <rect class="cls-17" x="1110.55" width="7.13" height="810"/>
  <rect class="cls-16" x="1124.79" width="7.13" height="810"/>
  <rect class="cls-15" x="1139.02" width="7.13" height="810"/>
  <rect class="cls-5" x="1153.26" width="7.13" height="810"/>
  <rect class="cls-70" x="1167.5" width="7.13" height="810"/>
  <rect class="cls-69" x="1181.74" width="7.13" height="810"/>
  <rect class="cls-58" x="1195.98" width="7.13" height="810"/>
  <rect class="cls-57" x="1210.21" width="7.13" height="810"/>
  <rect class="cls-73" x="1224.45" width="7.13" height="810"/>
  <rect class="cls-74" x="1238.69" width="7.13" height="810"/>
  <rect class="cls-75" x="1252.93" width="7.13" height="810"/>
  <rect class="cls-61" x="1267.17" width="7.13" height="810"/>
  <rect class="cls-72" x="1281.4" width="7.13" height="810"/>
  <rect class="cls-71" x="1295.64" width="7.13" height="810"/>
  <rect class="cls-63" x="1309.88" width="7.13" height="810"/>
  <rect class="cls-60" x="1324.12" width="7.13" height="810"/>
  <rect class="cls-67" x="1338.35" width="7.13" height="810"/>
  <rect class="cls-66" x="1352.59" width="7.13" height="810"/>
  <rect class="cls-68" x="1366.83" width="7.13" height="810"/>
  <rect class="cls-65" x="1381.07" width="7.13" height="810"/>
  <rect class="cls-64" x="1395.31" width="7.13" height="810"/>
  <rect class="cls-62" x="1409.54" width="7.13" height="810"/>
  <rect class="cls-59" x="1423.78" width="7.13" height="810"/>
  <rect class="cls-55" x="1438.02" width="7.13" height="810"/>
  <rect class="cls-56" x="1452.26" width="7.13" height="810"/>
  <rect class="cls-32" x="1466.49" width="7.13" height="810"/>
  <rect class="cls-52" x="1480.73" width="7.13" height="810"/>
  <rect class="cls-54" x="1494.97" width="7.13" height="810"/>
  <rect class="cls-53" x="1509.21" width="7.13" height="810"/>
  <rect class="cls-50" x="1523.45" width="7.13" height="810"/>
  <rect class="cls-49" x="1537.68" width="7.13" height="810"/>
  <rect class="cls-51" x="1551.92" width="7.13" height="810"/>
  <rect class="cls-33" x="1566.16" width="7.13" height="810"/>
  <rect class="cls-28" x="1580.4" width="7.13" height="810"/>
  <rect class="cls-30" x="1594.63" width="7.13" height="810"/>
  <rect class="cls-29" x="1608.87" width="7.13" height="810"/>
  <rect class="cls-27" x="1623.11" width="7.13" height="810"/>
  <rect class="cls-26" x="1637.35" width="7.13" height="810"/>
  <rect class="cls-25" x="1651.59" width="7.13" height="810"/>
</svg>