<?xml version="1.0" encoding="UTF-8"?>
<svg id="Layer_1" data-name="Layer 1" xmlns="http://www.w3.org/2000/svg" viewBox="0 0 1154.71 829.1" fill="#ff8fff">
  <defs>
    <style>
      .cls-1 {
        fill: #ff8fff;
      }
    </style>
  </defs>
  <path class="cls-1" d="M382.22,438.81c-81.4,0-124.89,51.29-124.89,115.97v40.7c0,47.95,24.53,83.08,77.5,83.08,35.68,0,51.3-15.61,66.35-34.01v72.48c0,15.61-5.58,28.99-25.65,28.99s-23.98-10.59-23.98-29.55v-11.15h-94.78v18.96c0,55.76,37.36,104.82,123.78,104.82s122.66-55.2,122.66-122.1v-152.21c0-64.68-37.36-115.97-120.99-115.97Zm18.96,155c0,12.27-5.02,23.42-21.19,23.42s-20.63-11.15-20.63-23.42v-48.51c0-12.27,5.02-23.42,20.63-23.42s21.19,11.15,21.19,23.42v48.51Z"/>
  <path class="cls-1" d="M764.14,438.81c-83.63,0-122.66,51.29-122.66,115.97v158.35c0,64.12,39.03,115.97,122.66,115.97s123.22-51.85,123.22-115.97v-158.35c0-64.68-39.03-115.97-123.22-115.97Zm21.19,279.34c0,15.05-6.13,24.53-21.19,24.53s-20.63-9.48-20.63-24.53v-168.38c0-15.05,6.13-24.53,20.63-24.53s21.19,9.48,21.19,24.53v168.38Z"/>
  <path class="cls-1" d="M1026.47,438.81c-83.63,0-122.66,51.29-122.66,115.97v158.35c0,64.12,39.03,115.97,122.66,115.97s123.22-51.85,123.22-115.97v-158.35c0-64.68-39.03-115.97-123.22-115.97Zm21.19,279.34c0,15.05-6.13,24.53-21.19,24.53s-20.63-9.48-20.63-24.53v-168.38c0-15.05,6.13-24.53,20.63-24.53s21.19,9.48,21.19,24.53v168.38Z"/>
  <circle class="cls-1" cx="572.34" cy="570.95" r="40.7"/>
  <circle class="cls-1" cx="572.34" cy="696.96" r="40.7"/>
  <path class="cls-1" d="M379.72,390.29c84.19,0,123.22-51.85,123.22-115.97V115.97C502.94,51.29,463.91,0,379.72,0s-122.66,51.29-122.66,115.97v158.35c0,64.12,39.03,115.97,122.66,115.97Zm-20.63-279.34c0-15.05,6.13-24.53,20.63-24.53s21.19,9.48,21.19,24.53v168.38c0,15.05-6.13,24.53-21.19,24.53s-20.63-9.48-20.63-24.53V110.95Z"/>
  <path class="cls-1" d="M1121.26,234.17V9.48h-90.88l-131.58,224.14v75.83h124.89v71.37h97.57v-71.37h33.45v-75.27h-33.45Zm-97.57,0h-41.26l41.26-73.04v73.04Z"/>
  <circle class="cls-1" cx="572.34" cy="349.59" r="40.7"/>
  <path class="cls-1" d="M174.79,448.29H96.96c-4.1,25.91-36.2,63.12-87.11,65.63v57.03h61.8v179.48H0v69.2H246.44v-69.2h-71.65V448.29Z"/>
  <path class="cls-1" d="M174.79,9.48H96.96c-4.1,25.91-36.2,63.12-87.11,65.63v57.03h61.8v179.48H0v69.2H246.44v-69.2h-71.65V9.48Z"/>
  <path class="cls-1" d="M815.99,9.48h-77.84c-4.1,25.91-36.2,63.12-87.11,65.63v57.03h61.8v179.48h-71.65v69.2h246.44v-69.2h-71.65V9.48Z"/>
</svg>